<?xml version="1.0" encoding="UTF-8" standalone="no"?>
<!-- Created with Inkscape (http://www.inkscape.org/) -->

<svg
   xmlns:dc="http://purl.org/dc/elements/1.1/"
   xmlns:cc="http://creativecommons.org/ns#"
   xmlns:rdf="http://www.w3.org/1999/02/22-rdf-syntax-ns#"
   xmlns:svg="http://www.w3.org/2000/svg"
   xmlns="http://www.w3.org/2000/svg"
   xmlns:xlink="http://www.w3.org/1999/xlink"
   xmlns:sodipodi="http://sodipodi.sourceforge.net/DTD/sodipodi-0.dtd"
   xmlns:inkscape="http://www.inkscape.org/namespaces/inkscape"
   width="31.407013mm"
   height="13.21209mm"
   viewBox="0 0 31.407013 13.21209"
   version="1.1"
   id="svg886"
   sodipodi:docname="demoj.svg"
   inkscape:version="0.92.5 (2060ec1f9f, 2020-04-08)">
  <defs
     id="defs880">
    <clipPath
       id="clipPath975"
       clipPathUnits="userSpaceOnUse">
      <path
         inkscape:connector-curvature="0"
         id="path973"
         d="m 3876.47,2907.69 c 0,0 -172.16,891.51 365,1479.82 537.17,588.3 1948.26,847.56 2103.27,1464.82 0,0 312.15,-1642.29 -595.36,-2484.54 -907.5,-842.26 -2067.6,-811.39 -2143.37,-1220.12 0,0 -88.21,343.49 762.98,775.68 1186.14,602.26 1600,1288.04 1630.33,2172.97 0,0 -107.81,-1378.68 -2122.85,-2188.63 z" />
    </clipPath>
    <clipPath
       clipPathUnits="userSpaceOnUse"
       id="clipPath975-6">
      <path
         d="m 3876.47,2907.69 c 0,0 -172.16,891.51 365,1479.82 537.17,588.3 1948.26,847.56 2103.27,1464.82 0,0 312.15,-1642.29 -595.36,-2484.54 -907.5,-842.26 -2067.6,-811.39 -2143.37,-1220.12 0,0 -88.21,343.49 762.98,775.68 1186.14,602.26 1600,1288.04 1630.33,2172.97 0,0 -107.81,-1378.68 -2122.85,-2188.63 z"
         id="path973-7"
         inkscape:connector-curvature="0" />
    </clipPath>
    <linearGradient
       x1="0"
       y1="0"
       x2="1"
       y2="0"
       gradientUnits="userSpaceOnUse"
       gradientTransform="matrix(906.567,-3963.78,-3963.78,-906.567,4862.5,4493.52)"
       spreadMethod="pad"
       id="linearGradient983">
      <stop
         style="stop-opacity:1;stop-color:#7fcb2d"
         offset="0"
         id="stop977" />
      <stop
         style="stop-opacity:1;stop-color:#e6ff2e"
         offset="1"
         id="stop981" />
    </linearGradient>
    <clipPath
       id="clipPath975-3"
       clipPathUnits="userSpaceOnUse">
      <path
         inkscape:connector-curvature="0"
         id="path973-6"
         d="m 3876.47,2907.69 c 0,0 -172.16,891.51 365,1479.82 537.17,588.3 1948.26,847.56 2103.27,1464.82 0,0 312.15,-1642.29 -595.36,-2484.54 -907.5,-842.26 -2067.6,-811.39 -2143.37,-1220.12 0,0 -88.21,343.49 762.98,775.68 1186.14,602.26 1600,1288.04 1630.33,2172.97 0,0 -107.81,-1378.68 -2122.85,-2188.63 z" />
    </clipPath>
    <linearGradient
       inkscape:collect="always"
       xlink:href="#linearGradient983"
       id="linearGradient1602"
       x1="379.30435"
       y1="259.18356"
       x2="427.53516"
       y2="259.18356"
       gradientUnits="userSpaceOnUse" />
  </defs>
  <sodipodi:namedview
     id="base"
     pagecolor="#ffffff"
     bordercolor="#666666"
     borderopacity="1.0"
     inkscape:pageopacity="0.0"
     inkscape:pageshadow="2"
     inkscape:zoom="5.6"
     inkscape:cx="86.075157"
     inkscape:cy="4.3572292"
     inkscape:document-units="mm"
     inkscape:current-layer="g945"
     showgrid="false"
     inkscape:object-paths="true"
     inkscape:snap-smooth-nodes="true"
     showguides="true"
     inkscape:guide-bbox="true"
     inkscape:snap-global="true"
     inkscape:window-width="1920"
     inkscape:window-height="1027"
     inkscape:window-x="0"
     inkscape:window-y="25"
     inkscape:window-maximized="1"
     inkscape:snap-bbox="false"
     inkscape:bbox-paths="true"
     inkscape:snap-bbox-edge-midpoints="true"
     inkscape:snap-midpoints="true"
     inkscape:snap-object-midpoints="true"
     inkscape:snap-page="true" />
  <metadata
     id="metadata883">
    <rdf:RDF>
      <cc:Work
         rdf:about="">
        <dc:format>image/svg+xml</dc:format>
        <dc:type
           rdf:resource="http://purl.org/dc/dcmitype/StillImage" />
        <dc:title></dc:title>
      </cc:Work>
    </rdf:RDF>
  </metadata>
  <g
     inkscape:label="Layer 1"
     inkscape:groupmode="layer"
     id="layer1"
     transform="translate(-38.725067,-108.20943)">
    <g
       style="font-style:normal;font-variant:normal;font-weight:normal;font-stretch:normal;font-size:14.3378973px;line-height:1.25;font-family:'Handel Gothic';-inkscape-font-specification:'Handel Gothic';letter-spacing:0px;word-spacing:0px;fill:#d4ff2a;fill-opacity:1;stroke:none;stroke-width:0.35844743"
       id="g900"
       transform="matrix(0.00146458,3.92433e-4,3.92433e-4,-0.00146458,78.793084,66.42262)">
      <g
         style="fill:#d4ff2a;fill-opacity:1"
         id="g898"
         clip-path="url(#clipPath975)" />
    </g>
    <g
       id="g1291"
       transform="translate(3.2303118,20.642914)">
      <g
         transform="translate(-0.45668316,5.9057407)"
         id="g1225">
        <g
           id="g1163"
           transform="translate(1.2852745,-1.6145935)">
          <g
             id="g1063">
            <g
               id="g945"
               transform="matrix(0.73473059,0,0,0.73473059,-17.604354,40.983568)"
               style="fill:#69bd32;fill-opacity:1">
              <path
                 style="font-style:normal;font-variant:normal;font-weight:normal;font-stretch:normal;font-size:14.3378973px;line-height:1.25;font-family:'Handel Gothic';-inkscape-font-specification:'Handel Gothic';letter-spacing:0px;word-spacing:0px;opacity:1;fill:#69bd32;fill-opacity:1;fill-rule:evenodd;stroke:none;stroke-width:5;stroke-miterlimit:4;stroke-dasharray:none;stroke-opacity:1"
                 d="m 106.51023,65.13478 a 3.7994201,3.7994201 0 0 0 -3.79977,3.79926 3.7994201,3.7994201 0 0 0 3.79977,3.79976 3.7994201,3.7994201 0 0 0 3.79925,-3.79976 3.7994201,3.7994201 0 0 0 -3.79925,-3.79926 z m 0,1.40405 a 2.3950793,2.3950793 0 0 1 2.39468,2.39521 2.3950793,2.3950793 0 0 1 -2.39468,2.3952 2.3950793,2.3950793 0 0 1 -2.39521,-2.3952 2.3950793,2.3950793 0 0 1 2.39521,-2.39521 z"
                 id="path889"
                 inkscape:connector-curvature="0" />
              <path
                 style="font-style:normal;font-variant:normal;font-weight:normal;font-stretch:normal;font-size:14.3378973px;line-height:1.25;font-family:'Handel Gothic';-inkscape-font-specification:'Handel Gothic';letter-spacing:0px;word-spacing:0px;opacity:1;fill:#69bd32;fill-opacity:1;fill-rule:evenodd;stroke:none;stroke-width:5;stroke-miterlimit:4;stroke-dasharray:none;stroke-opacity:1"
                 d="m 86.332595,65.13486 a 3.7994201,3.7994201 0 0 0 -1.016992,0.1292 3.7994201,3.7994201 0 0 0 -2.687175,4.65346 3.7994201,3.7994201 0 0 0 4.653979,2.68666 3.7994201,3.7994201 0 0 0 2.78071,-3.16157 l -1.558044,0.41755 a 2.3947875,2.3947875 0 0 1 -1.586468,1.38699 2.3947875,2.3947875 0 0 1 -2.75332,-1.23196 l 3.667992,-0.98237 0.855763,-0.22945 1.372011,-0.36793 a 3.7994201,3.7994201 0 0 0 -0.0925,-0.48473 3.7994201,3.7994201 0 0 0 -3.635956,-2.81585 z m 0.05788,1.40715 a 2.3947875,2.3947875 0 0 1 1.811776,0.94258 l -4.277776,1.14619 a 2.3947875,2.3947875 0 0 1 1.754932,-2.0097 2.3947875,2.3947875 0 0 1 0.711068,-0.0791 z"
                 id="path887"
                 inkscape:connector-curvature="0" />
              <g
                 style="font-style:normal;font-variant:normal;font-weight:normal;font-stretch:normal;font-size:14.3378973px;line-height:1.25;font-family:'Handel Gothic';-inkscape-font-specification:'Handel Gothic';letter-spacing:0px;word-spacing:0px;fill:#69bd32;fill-opacity:1;stroke:none;stroke-width:0.35844743"
                 id="g912"
                 inkscape:label="ink_ext_XXXXXX"
                 transform="matrix(0.0146458,0.00392433,0.00392433,-0.0146458,77.388412,66.42262)">
                <g
                   style="fill:#69bd32;fill-opacity:1"
                   id="g910"
                   transform="scale(0.1)">
                  <g
                     style="fill:#69bd32;fill-opacity:1"
                     id="g908">
                    <g
                       style="fill:#69bd32;fill-opacity:1"
                       id="g906"
                       clip-path="url(#clipPath975-3)">
                      <path
                         d="m 3876.47,2907.69 c 0,0 -172.16,891.51 365,1479.82 537.17,588.3 1948.26,847.56 2103.27,1464.82 0,0 312.15,-1642.29 -595.36,-2484.54 -907.5,-842.26 -2067.6,-811.39 -2143.37,-1220.12 0,0 -88.21,343.49 762.98,775.68 1186.14,602.26 1600,1288.04 1630.33,2172.97 0,0 -107.81,-1378.68 -2122.85,-2188.63"
                         style="fill:#69bd32;fill-opacity:1;fill-rule:nonzero;stroke:none"
                         id="path904"
                         inkscape:connector-curvature="0" />
                    </g>
                  </g>
                </g>
              </g>
              <path
                 sodipodi:nodetypes="cccccccccccccccccc"
                 inkscape:connector-curvature="0"
                 id="path1068"
                 d="m 94.050495,65.13478 c -1.678317,-1.8e-4 -3.038988,1.36026 -3.03909,3.03858 v 4.56044 h 1.404565 v -4.56044 c 1.16e-4,-0.9026 0.731933,-1.63418 1.634525,-1.63402 0.902391,1.2e-4 1.633893,0.73162 1.634009,1.63402 v 4.56044 h 1.404566 v -4.56044 c 1.16e-4,-0.9026 0.731933,-1.63418 1.63453,-1.63402 0.902392,1.2e-4 1.63389,0.73162 1.63401,1.63402 v 4.56044 h 1.40456 v -4.56044 c -1e-4,-1.67812 -1.36046,-3.03848 -3.03857,-3.03858 -0.903176,7.9e-4 -1.759144,0.40351 -2.33578,1.09864 -0.576982,-0.69555 -1.433611,-1.0982 -2.337325,-1.09864 z"
                 style="font-style:normal;font-variant:normal;font-weight:normal;font-stretch:normal;font-size:14.3378973px;line-height:1.25;font-family:'Handel Gothic';-inkscape-font-specification:'Handel Gothic';letter-spacing:0px;word-spacing:0px;opacity:1;fill:#69bd32;fill-opacity:1;fill-rule:evenodd;stroke:none;stroke-width:3.99897957;stroke-miterlimit:4;stroke-dasharray:none;stroke-opacity:1" />
              <path
                 inkscape:connector-curvature="0"
                 id="path865"
                 d="m 80.146115,61.60789 v 4.37906 a 3.7994201,3.7994201 0 0 0 -2.394685,-0.85214 3.7994201,3.7994201 0 0 0 -3.799768,3.79925 3.7994201,3.7994201 0 0 0 3.799768,3.79977 3.7994201,3.7994201 0 0 0 3.799251,-3.79874 3.7994201,3.7994201 0 0 0 0,-0.001 v -7.32617 z m -2.394685,4.93097 a 2.3950793,2.3950793 0 0 1 2.394685,2.3952 v 10e-4 a 2.3950793,2.3950793 0 0 1 -2.394685,2.39417 2.3950793,2.3950793 0 0 1 -2.395203,-2.3952 2.3950793,2.3950793 0 0 1 2.395203,-2.3952 z"
                 style="font-style:normal;font-variant:normal;font-weight:normal;font-stretch:normal;font-size:14.3378973px;line-height:1.25;font-family:'Handel Gothic';-inkscape-font-specification:'Handel Gothic';letter-spacing:0px;word-spacing:0px;opacity:1;fill:#69bd32;fill-opacity:1;fill-rule:evenodd;stroke:none;stroke-width:5;stroke-miterlimit:4;stroke-dasharray:none;stroke-opacity:1" />
              <path
                 id="path862"
                 transform="scale(0.26458333)"
                 d="m 340.5918,232.84961 c -0.55479,1.72762 -1.4108,3.64143 -2.70703,5.28516 v 0.0234 h 84.34179 v 22.38086 c 7.8e-4,10.86295 -9.30698,19.66962 -20.16992,19.66992 H 293.86133 c -10.86296,-3e-4 -19.66875,-8.80696 -19.66797,-19.66992 3e-4,-10.86295 8.80696,-19.66875 19.66992,-19.66797 1.2799,4e-5 2.53044,0.12783 3.74219,0.36133 v -5.39062 c -1.2206,-0.18339 -2.47047,-0.27928 -3.74219,-0.2793 -13.79484,-8.5e-4 -24.97828,11.18172 -24.97851,24.97656 -8.5e-4,13.79484 11.18172,24.97828 24.97656,24.97852 h 108.19531 c 13.79483,-2.4e-4 25.47937,-11.18368 25.47852,-24.97852 v -27.68945 h -5.3086 z"
                 style="font-style:normal;font-variant:normal;font-weight:normal;font-stretch:normal;font-size:14.3378973px;line-height:1.25;font-family:'Handel Gothic';-inkscape-font-specification:'Handel Gothic';letter-spacing:0px;word-spacing:0px;opacity:1;fill:url(#linearGradient1602);fill-opacity:1;fill-rule:evenodd;stroke:none;stroke-width:32.86948013;stroke-miterlimit:4;stroke-dasharray:none;stroke-opacity:1"
                 inkscape:connector-curvature="0" />
              <circle
                 r="1.4723377"
                 cy="59.033298"
                 cx="112.41639"
                 id="path928"
                 style="opacity:1;fill:#e3fd2e;fill-opacity:1;fill-rule:evenodd;stroke:none;stroke-width:6.29546499;stroke-miterlimit:4;stroke-dasharray:none;stroke-opacity:1" />
            </g>
          </g>
        </g>
      </g>
    </g>
  </g>
</svg>
