<?xml version="1.0" encoding="UTF-8" standalone="no"?>
<!-- Created with Inkscape (http://www.inkscape.org/) -->

<svg
   xmlns:dc="http://purl.org/dc/elements/1.1/"
   xmlns:cc="http://creativecommons.org/ns#"
   xmlns:rdf="http://www.w3.org/1999/02/22-rdf-syntax-ns#"
   xmlns:svg="http://www.w3.org/2000/svg"
   xmlns="http://www.w3.org/2000/svg"
   xmlns:sodipodi="http://sodipodi.sourceforge.net/DTD/sodipodi-0.dtd"
   xmlns:inkscape="http://www.inkscape.org/namespaces/inkscape"
   width="66.84304mm"
   height="12.392556mm"
   viewBox="0 0 66.843041 12.392555"
   version="1.1"
   id="svg8"
   inkscape:version="0.92.5 (2060ec1f9f, 2020-04-08)"
   sodipodi:docname="demotech.svg"
   inkscape:export-filename="/home/jean-louis/Documents/Cours/M1/DemoJ/ecotech.png"
   inkscape:export-xdpi="356"
   inkscape:export-ydpi="356">
  <defs
     id="defs2">
    <clipPath
       id="clipPath975"
       clipPathUnits="userSpaceOnUse">
      <path
         inkscape:connector-curvature="0"
         id="path973"
         d="m 3876.47,2907.69 c 0,0 -172.16,891.51 365,1479.82 537.17,588.3 1948.26,847.56 2103.27,1464.82 0,0 312.15,-1642.29 -595.36,-2484.54 -907.5,-842.26 -2067.6,-811.39 -2143.37,-1220.12 0,0 -88.21,343.49 762.98,775.68 1186.14,602.26 1600,1288.04 1630.33,2172.97 0,0 -107.81,-1378.68 -2122.85,-2188.63 z" />
    </clipPath>
    <linearGradient
       id="linearGradient983"
       spreadMethod="pad"
       gradientTransform="matrix(906.567,-3963.78,-3963.78,-906.567,4862.5,4493.52)"
       gradientUnits="userSpaceOnUse"
       y2="0"
       x2="1"
       y1="0"
       x1="0">
      <stop
         id="stop977"
         offset="0"
         style="stop-opacity:1;stop-color:#7fcb2d" />
      <stop
         id="stop979"
         offset="0.550209"
         style="stop-opacity:1;stop-color:#2a9540" />
      <stop
         id="stop981"
         offset="1"
         style="stop-opacity:1;stop-color:#216833" />
    </linearGradient>
  </defs>
  <sodipodi:namedview
     id="base"
     pagecolor="#ffffff"
     bordercolor="#666666"
     borderopacity="1.0"
     inkscape:pageopacity="0.0"
     inkscape:pageshadow="2"
     inkscape:zoom="2"
     inkscape:cx="149.74635"
     inkscape:cy="41.108825"
     inkscape:document-units="mm"
     inkscape:current-layer="g932"
     showgrid="false"
     showguides="true"
     inkscape:guide-bbox="true"
     inkscape:snap-text-baseline="false"
     inkscape:snap-bbox="true"
     inkscape:bbox-nodes="true"
     inkscape:snap-intersection-paths="true"
     inkscape:snap-smooth-nodes="true"
     inkscape:snap-object-midpoints="true"
     inkscape:object-paths="true"
     inkscape:snap-others="true"
     inkscape:bbox-paths="true"
     inkscape:snap-center="false"
     inkscape:snap-bbox-edge-midpoints="false"
     inkscape:snap-bbox-midpoints="false"
     inkscape:window-width="1920"
     inkscape:window-height="1027"
     inkscape:window-x="0"
     inkscape:window-y="25"
     inkscape:window-maximized="1"
     inkscape:snap-global="true"
     inkscape:snap-nodes="true"
     inkscape:object-nodes="true"
     inkscape:snap-midpoints="true">
    <sodipodi:guide
       position="25.900061,111.96058"
       orientation="0,1"
       id="guide838"
       inkscape:locked="false" />
    <sodipodi:guide
       position="73.008205,121.16415"
       orientation="0,1"
       id="guide882"
       inkscape:locked="false" />
    <sodipodi:guide
       position="69.002306,119.5596"
       orientation="0,1"
       id="guide1046"
       inkscape:locked="false" />
  </sodipodi:namedview>
  <metadata
     id="metadata5">
    <rdf:RDF>
      <cc:Work
         rdf:about="">
        <dc:format>image/svg+xml</dc:format>
        <dc:type
           rdf:resource="http://purl.org/dc/dcmitype/StillImage" />
        <dc:title />
      </cc:Work>
    </rdf:RDF>
  </metadata>
  <g
     inkscape:label="Layer 1"
     inkscape:groupmode="layer"
     id="layer1"
     transform="translate(-37.883792,-285.3013)">
    <g
       aria-label="TECH"
       style="font-style:normal;font-variant:normal;font-weight:normal;font-stretch:normal;font-size:10.58333302px;line-height:1.25;font-family:'Handel Gothic';-inkscape-font-specification:'Handel Gothic';letter-spacing:0px;word-spacing:0px;fill:#a8a8a8;fill-opacity:1;stroke:none;stroke-width:0.26458332"
       id="text817"
       transform="matrix(1,0,-0.26794919,1,42.292786,0)" />
    <g
       id="g1017">
      <g
         style="font-style:normal;font-variant:normal;font-weight:normal;font-stretch:normal;font-size:14.3378973px;line-height:1.25;font-family:'Handel Gothic';-inkscape-font-specification:'Handel Gothic';letter-spacing:0px;word-spacing:0px;fill:#000000;fill-opacity:1;stroke:none;stroke-width:0.35844743"
         id="g932"
         transform="translate(-30.093739,57.456362)">
        <path
           inkscape:connector-curvature="0"
           id="path889"
           d="m 100.5361,232.63842 a 3.7994201,3.7994201 0 0 0 -3.79977,3.79926 3.7994201,3.7994201 0 0 0 3.79977,3.79976 3.7994201,3.7994201 0 0 0 3.79925,-3.79976 3.7994201,3.7994201 0 0 0 -3.79925,-3.79926 z m 0,1.40405 a 2.3950793,2.3950793 0 0 1 2.39468,2.39521 2.3950793,2.3950793 0 0 1 -2.39468,2.3952 2.3950793,2.3950793 0 0 1 -2.39521,-2.3952 2.3950793,2.3950793 0 0 1 2.39521,-2.39521 z"
           style="opacity:1;fill:#69bd32;fill-opacity:1;fill-rule:evenodd;stroke:none;stroke-width:5;stroke-miterlimit:4;stroke-dasharray:none;stroke-opacity:1" />
        <g
           transform="translate(-7.9595469,54.374544)"
           id="g920">
          <path
             style="opacity:1;fill:#69bd32;fill-opacity:1;fill-rule:evenodd;stroke:none;stroke-width:5;stroke-miterlimit:4;stroke-dasharray:none;stroke-opacity:1"
             d="m 88.318009,178.26395 a 3.7994201,3.7994201 0 0 0 -1.016992,0.1292 3.7994201,3.7994201 0 0 0 -2.687175,4.65346 3.7994201,3.7994201 0 0 0 4.653979,2.68666 3.7994201,3.7994201 0 0 0 2.78071,-3.16157 l -1.558044,0.41755 a 2.3947875,2.3947875 0 0 1 -1.586468,1.38699 2.3947875,2.3947875 0 0 1 -2.75332,-1.23196 l 3.667992,-0.98237 0.855763,-0.22945 1.372011,-0.36793 a 3.7994201,3.7994201 0 0 0 -0.0925,-0.48473 3.7994201,3.7994201 0 0 0 -3.635956,-2.81585 z m 0.05788,1.40715 a 2.3947875,2.3947875 0 0 1 1.811776,0.94258 l -4.277776,1.14619 a 2.3947875,2.3947875 0 0 1 1.754932,-2.0097 2.3947875,2.3947875 0 0 1 0.711068,-0.0791 z"
             id="path887"
             inkscape:connector-curvature="0" />
          <g
             style="fill:#a5e00f;fill-opacity:1"
             id="g912"
             inkscape:label="ink_ext_XXXXXX"
             transform="matrix(0.0146458,0.00392433,0.00392433,-0.0146458,79.373826,179.55171)">
            <g
               style="fill:#a5e00f;fill-opacity:1"
               id="g910"
               transform="scale(0.1)">
              <g
                 style="fill:#a5e00f;fill-opacity:1"
                 id="g908">
                <g
                   style="fill:#a5e00f;fill-opacity:1"
                   id="g906"
                   clip-path="url(#clipPath975)">
                  <path
                     d="m 3876.47,2907.69 c 0,0 -172.16,891.51 365,1479.82 537.17,588.3 1948.26,847.56 2103.27,1464.82 0,0 312.15,-1642.29 -595.36,-2484.54 -907.5,-842.26 -2067.6,-811.39 -2143.37,-1220.12 0,0 -88.21,343.49 762.98,775.68 1186.14,602.26 1600,1288.04 1630.33,2172.97 0,0 -107.81,-1378.68 -2122.85,-2188.63"
                     style="fill:#a5e00f;fill-opacity:1;fill-rule:nonzero;stroke:none"
                     id="path904"
                     inkscape:connector-curvature="0" />
                </g>
              </g>
            </g>
          </g>
        </g>
        <path
           style="opacity:1;fill:#69bd32;fill-opacity:1;fill-rule:evenodd;stroke:none;stroke-width:3.99897957;stroke-miterlimit:4;stroke-dasharray:none;stroke-opacity:1"
           d="m 88.076363,232.63842 c -1.678317,-1.8e-4 -3.038988,1.36026 -3.03909,3.03858 v 4.56044 h 1.404565 V 235.677 c 1.16e-4,-0.9026 0.731933,-1.63418 1.634525,-1.63402 0.902391,1.2e-4 1.633893,0.73162 1.634009,1.63402 v 4.56044 h 1.404566 V 235.677 c 1.16e-4,-0.9026 0.731933,-1.63418 1.63453,-1.63402 0.902392,1.2e-4 1.633892,0.73162 1.634012,1.63402 v 4.56044 h 1.40456 V 235.677 c -10e-5,-1.67812 -1.36046,-3.03848 -3.038572,-3.03858 -0.903176,7.9e-4 -1.759144,0.40351 -2.33578,1.09864 -0.576982,-0.69555 -1.433611,-1.0982 -2.337325,-1.09864 z"
           id="path1068"
           inkscape:connector-curvature="0"
           sodipodi:nodetypes="cccccccccccccccccc" />
        <path
           inkscape:connector-curvature="0"
           style="font-style:normal;font-variant:normal;font-weight:normal;font-stretch:normal;font-size:14.3378973px;line-height:1.25;font-family:'Handel Gothic';-inkscape-font-specification:'Handel Gothic';letter-spacing:0px;word-spacing:0px;opacity:1;fill:#69bd32;fill-opacity:1;fill-rule:evenodd;stroke:none;stroke-width:5;stroke-miterlimit:4;stroke-dasharray:none;stroke-opacity:1"
           d="m 74.171984,229.11156 v 4.37906 a 3.7994201,3.7994201 0 0 0 -2.394686,-0.85215 3.7994201,3.7994201 0 0 0 -3.799768,3.79926 3.7994201,3.7994201 0 0 0 3.799768,3.79976 3.7994201,3.7994201 0 0 0 3.799251,-3.79976 v -7.32617 z m -2.394686,4.93096 a 2.3950793,2.3950793 0 0 1 2.394686,2.39521 2.3950793,2.3950793 0 0 1 -2.394686,2.3952 2.3950793,2.3950793 0 0 1 -2.395203,-2.3952 2.3950793,2.3950793 0 0 1 2.395203,-2.39521 z"
           id="path889-3" />
      </g>
      <g
         id="g1102">
        <path
           sodipodi:nodetypes="sccccccss"
           inkscape:connector-curvature="0"
           id="rect1020"
           d="m 73.67092,287.38868 c -0.77813,0 -1.40457,0.62644 -1.40457,1.40456 h 3.2768 v 8.90061 h 1.404569 v -8.90061 h 3.276804 c 0,-0.77812 -0.62644,-1.40456 -1.40456,-1.40456 z"
           style="opacity:1;fill:#a8a8a8;fill-opacity:1;fill-rule:evenodd;stroke:none;stroke-width:5.63803148;stroke-miterlimit:4;stroke-dasharray:none;stroke-opacity:1" />
        <path
           sodipodi:nodetypes="sssssccccss"
           inkscape:connector-curvature="0"
           id="rect1022"
           d="m 88.913513,290.09478 c -0.77812,0 -1.40456,0.62644 -1.40456,1.40456 v 4.78994 c 0,0.77813 0.62644,1.40457 1.40456,1.40457 h 5.149037 c 0.77813,0 1.40457,-0.62644 1.40457,-1.40457 h -6.553607 v -4.78994 h 6.553607 c 0,-0.77812 -0.62644,-1.40456 -1.40457,-1.40456 z"
           style="opacity:1;fill:#a8a8a8;fill-opacity:1;fill-rule:evenodd;stroke:none;stroke-width:5.63803148;stroke-miterlimit:4;stroke-dasharray:none;stroke-opacity:1" />
        <path
           sodipodi:nodetypes="cssccccsscccc"
           inkscape:connector-curvature="0"
           id="rect1024"
           d="m 98.173219,290.09478 c -0.77812,0 -1.40456,0.62644 -1.40456,1.40456 v 4.78994 c 0,0.77813 0.62644,1.40457 1.40456,1.40457 v -3.09748 h 5.149041 v 3.09748 c 0.77813,0 1.40457,-0.62644 1.40457,-1.40457 v -4.78994 c 0,-0.77812 -0.62644,-1.40456 -1.40457,-1.40456 v 3.09702 h -5.149041 z"
           style="opacity:1;fill:#a8a8a8;fill-opacity:1;fill-rule:evenodd;stroke:none;stroke-width:5.63803148;stroke-miterlimit:4;stroke-dasharray:none;stroke-opacity:1" />
        <path
           sodipodi:nodetypes="cssccsccccccccsc"
           inkscape:connector-curvature="0"
           id="rect940"
           d="m 79.653299,290.09478 c -0.77788,2.8e-4 -1.404044,0.62661 -1.404044,1.40456 v 4.78994 c 0,0.77795 0.626164,1.40429 1.404044,1.40457 h 5.2e-4 5.14904 c 0.77812,0 1.40456,-0.62644 1.40456,-1.40457 h -6.55412 v -1.69291 h 6.55412 v -1.40457 h -6.55412 v -1.69246 h 6.55412 c 0,-0.77812 -0.62644,-1.40456 -1.40456,-1.40456 z"
           style="opacity:1;fill:#a8a8a8;fill-opacity:1;fill-rule:evenodd;stroke:none;stroke-width:5.63803148;stroke-miterlimit:4;stroke-dasharray:none;stroke-opacity:1" />
      </g>
      <g
         id="g1018"
         style="fill:#a8a8a8;fill-opacity:1" />
    </g>
  </g>
</svg>
